# xmcd
#
# Track frame offsets:
#	150
#	17550
#	31650
#	49950
#	72525
#	87300
#	101175
#	121650
#	138000
#	158175
#	174000
#
# Disc length: 2601 seconds
#
# Revision: 1
# Processed by: cddbd v1.5.1PL2 Copyright (c) Steve Scherf et al.
# Submitted via: EasyCDDAExtractor 6.2.0.3
#
DISCID=830a270b
DTITLE=Jerry Jeff Walker and The Gonzo Survivors - Doc Rickett's Lab, Monterey, 
DTITLE=CA (02/18/1991) [CD1]
DYEAR=1991
DGENRE=Country
TTITLE0=Announcer Intro/Gettin' By
TTITLE1=Pickup Truck Song
TTITLE2=I Found A Woman In Texas
TTITLE3=Mr. Bojangles
TTITLE4=Navajo Rug
TTITLE5=Jaded Lover
TTITLE6=London Homesick Blues
TTITLE7=I Feel Like Hank Williams Tonight
TTITLE8=Up Against The Wall Redneck Mother
TTITLE9=For Little Jessie (She Knows Her Daddy Sings)
TTITLE10=L.A. Freeway
EXTD=
EXTT0=
EXTT1=
EXTT2=
EXTT3=
EXTT4=
EXTT5=
EXTT6=
EXTT7=
EXTT8=
EXTT9=
EXTT10=
PLAYORDER=
